<?xml version="1.0" standalone="no"?>
<!DOCTYPE svg PUBLIC "-//W3C//DTD SVG 20010904//EN"
 "http://www.w3.org/TR/2001/REC-SVG-20010904/DTD/svg10.dtd">
<svg version="1.0" xmlns="http://www.w3.org/2000/svg"
 width="700.000000pt" height="700.000000pt" viewBox="0 0 700.000000 700.000000"
 preserveAspectRatio="xMidYMid meet">
<metadata>
Created by potrace 1.14, written by Peter Selinger 2001-2017
</metadata>
<g transform="translate(0.000000,700.000000) scale(0.100000,-0.100000)"
fill="#000000" stroke="none">
<path d="M1518 6969 c-54 -8 -118 -39 -175 -85 -26 -22 -91 -109 -176 -237
-74 -111 -331 -498 -571 -860 -241 -362 -446 -677 -456 -701 -38 -84 -50 -155
-47 -270 3 -95 7 -121 32 -181 24 -61 95 -180 115 -195 4 -3 9 -10 11 -16 2
-5 32 -50 67 -100 65 -92 549 -785 635 -909 27 -39 80 -115 119 -170 38 -55
85 -122 104 -150 18 -27 67 -97 107 -155 57 -80 305 -437 517 -740 6 -8 32
-45 58 -82 26 -37 135 -194 242 -348 107 -155 218 -314 246 -353 28 -40 113
-162 189 -272 77 -110 173 -248 214 -307 42 -59 161 -230 266 -380 202 -291
240 -338 295 -373 81 -50 157 -67 245 -53 74 11 140 47 198 106 42 43 71 84
226 308 31 44 172 246 314 450 142 203 314 450 383 549 69 99 132 189 140 200
12 17 172 247 349 500 173 249 535 769 564 810 28 40 271 388 516 740 23 33
56 80 74 105 17 25 48 70 69 100 20 30 40 60 45 65 43 52 401 577 420 617 42
86 57 160 53 278 -3 117 -5 124 -38 207 -31 75 -1143 1747 -1199 1801 -23 23
-50 44 -60 47 -11 4 -19 10 -19 15 0 5 -24 17 -52 27 -51 17 -139 18 -2014 18
-1078 0 -1981 -3 -2006 -6z m3172 -2134 c0 -2 -9 -3 -19 -2 -11 0 -18 5 -15 9
4 6 34 0 34 -7z"/>
</g>
</svg>
