<svg width="82" height="50" viewBox="0 0 82 50" fill="none" xmlns="http://www.w3.org/2000/svg">
<mask id="mask0_37_2" style="mask-type:luminance" maskUnits="userSpaceOnUse" x="4" y="7" width="72" height="38">
<path d="M75.9735 7.99023H4.0835V44.7402H75.9735V7.99023Z" fill="white"/>
</mask>
<g mask="url(#mask0_37_2)">
<mask id="mask1_37_2" style="mask-type:luminance" maskUnits="userSpaceOnUse" x="0" y="-10" width="94" height="71">
<path d="M93.3333 -9.99976H0V60.0002H93.3333V-9.99976Z" fill="white"/>
</mask>
<g mask="url(#mask1_37_2)">
<path d="M20.4168 18.5836H12.2686V19.0519H20.4168V18.5836Z" fill="white"/>
<path d="M24.9903 8.78356V9.25163C24.9903 9.25163 24.9777 9.25163 25.3993 9.25163C25.9087 9.25163 26.6236 9.69403 26.6236 10.4314V22.6522C26.6236 23.2976 26.0764 23.7169 25.5983 23.8116C25.53 23.8252 25.463 23.8322 25.3993 23.8322C24.9777 23.8322 24.9903 23.8322 24.9903 23.8322V24.3002H25.866L34.6948 24.3126H34.7357C35.7418 24.3126 36.1501 25.1169 36.1501 25.1169L37.3684 19.4791L36.9535 19.3762C35.5211 23.2815 33.8709 23.8443 32.5444 23.8443L31.5864 23.856H29.0736V10.4314C29.0736 9.78596 29.6215 9.36666 30.0996 9.27193C30.1679 9.25839 30.2342 9.25139 30.2979 9.25139C30.7195 9.25139 30.7069 9.25139 30.7069 9.25139V8.78333H24.9903V8.78356Z" fill="white"/>
<path d="M37.5669 8.78357V9.25164C37.5669 9.25164 37.5543 9.25164 37.976 9.25164C38.4853 9.25164 39.2003 9.69404 39.2003 10.4314V22.6522C39.2003 23.2976 38.6531 23.7169 38.175 23.8116C38.1066 23.8252 38.0397 23.8322 37.976 23.8322C37.5543 23.8322 37.5669 23.8322 37.5669 23.8322V24.3002H43.2836V23.8322C43.2836 23.8322 43.2962 23.8322 42.8746 23.8322C42.3652 23.8322 41.6503 23.3898 41.6503 22.6524V10.4316C41.6503 9.7862 42.1981 9.3669 42.6762 9.27217C42.7446 9.25864 42.8109 9.25164 42.8746 9.25164C43.2962 9.25164 43.2836 9.25164 43.2836 9.25164V8.78357H37.5669Z" fill="white"/>
<path d="M4.0835 25.1169C4.0835 25.1169 9.9509 25.1631 12.0096 21.555C14.0118 18.0457 12.9345 15.5455 16.4693 12.4788L16.2483 12.1169C16.2483 12.1169 14.1164 13.7755 13.2491 14.864C11.9123 16.5419 11.3735 18.8407 10.0428 20.6882C8.71213 22.5357 7.1894 24.3515 4.0856 24.6978L4.0835 25.1169Z" fill="white"/>
<path d="M54.3727 7.99817C54.3727 7.99817 54.1298 9.03184 53.1206 9.11817C52.1114 9.2045 51.4719 8.69957 50.0618 8.69957C49.1686 8.69957 44.0439 8.81787 44.0439 16.1532C44.0439 23.4885 48.6068 24.4927 49.8693 24.4927C51.5787 24.4927 54.0859 23.5529 55.1753 23.5529L56.3499 17.8026L55.9855 17.7034C54.4935 21.777 51.9369 24.024 50.2046 24.024C48.9355 24.024 46.4937 23.05 46.4937 16.1613C46.4937 15.9182 46.4984 15.6856 46.5054 15.4592H48.3123C49.8511 15.4592 50.9151 16.7458 51.6781 18.0572C51.7871 18.2445 51.89 18.4324 51.9873 18.6172L52.3651 18.4765L50.941 14.1241C50.941 14.1241 50.3313 14.9912 48.9614 14.9912H46.5259C46.5266 14.9776 46.5266 14.9629 46.5273 14.9496C46.8521 9.27217 49.3961 9.1688 50.2611 9.1688C51.8076 9.1688 53.6885 10.7884 54.9177 13.67C54.9996 13.8621 55.0792 14.0597 55.1562 14.2629L55.5624 14.1631L54.3724 7.99863L54.3727 7.99817Z" fill="white"/>
<path d="M17.1026 8.78357C17.1026 8.78357 16.5156 10.1115 15.1968 10.8878C15.1968 10.8878 19.7804 21.714 20.1483 22.6181C20.4006 23.2379 19.9512 23.9033 19.2988 23.9138C19.0813 23.9173 18.9474 23.9173 18.9474 23.9173L18.9527 24.3198C18.9527 24.3198 21.647 24.4953 23.6474 22.6132C25.6475 20.7312 28.0929 17.5389 31.2482 16.5382C34.4036 15.5374 46.1559 15.459 47.1928 15.459C48.2298 15.459 47.2358 14.9909 47.2358 14.9909C47.2358 14.9909 33.6807 14.9881 30.6514 16.2652C27.8486 17.4465 26.1847 19.3624 24.6174 20.9703C23.131 22.4952 22.1345 20.8651 21.7672 20.0666C21.4228 19.3181 17.1026 8.78357 17.1026 8.78357Z" fill="white"/>
<path d="M58.8004 8.78352V22.6524C58.8004 23.39 58.0854 23.8321 57.5761 23.8321C57.1544 23.8321 57.167 23.8321 57.167 23.8321V24.3002H60.9011V23.8321C60.9011 23.8321 60.9137 23.8321 60.492 23.8321C59.9855 23.8321 59.2766 23.3946 59.2684 22.6648V8.78142C59.2642 8.77792 58.8004 8.78352 58.8004 8.78352Z" fill="white"/>
<path d="M69.4171 21.7959V10.4283C69.4171 9.69075 68.7021 9.24858 68.1928 9.24858C67.7711 9.24858 67.7837 9.24858 67.7837 9.24858V8.78052H71.5178V9.24858C71.5178 9.24858 71.5304 9.24858 71.1087 9.24858C70.6022 9.24858 69.8933 9.68608 69.8851 10.416V21.798C69.8809 21.8015 69.4171 21.7959 69.4171 21.7959Z" fill="white"/>
<path d="M52.6094 39.732V28.3645C52.6094 27.6269 51.8945 27.1847 51.3851 27.1847C50.9635 27.1847 50.9761 27.1847 50.9761 27.1847V26.7167H54.7101V27.1847C54.7101 27.1847 54.7227 27.1847 54.3011 27.1847C53.7945 27.1847 53.0857 27.6222 53.0775 28.3521V39.7341C53.0733 39.7376 52.6094 39.732 52.6094 39.732Z" fill="white"/>
<path d="M57.167 8.78076V9.24883C57.167 9.24883 57.1544 9.24883 57.5761 9.24883C58.0854 9.24883 58.8004 9.69123 58.8004 10.4286V24.2974C58.8004 24.2974 59.2642 24.3023 59.2684 24.2988V11.4312C59.1765 11.2578 59.1226 11.0616 59.1291 10.8516C59.1296 10.8364 59.1315 10.8227 59.1319 10.8077C59.1233 10.7527 59.1182 10.6962 59.1182 10.6386C59.1182 10.5809 59.1154 10.4176 59.1154 10.4176C59.1102 10.1467 59.1102 10.02 59.1198 9.84733C59.1217 9.81186 59.1259 9.77966 59.1284 9.74676C59.1203 9.6833 59.1186 9.65879 59.1088 9.58413C59.1051 9.55683 59.0792 9.35523 59.0738 9.3151C59.0692 9.2794 59.0675 9.26866 59.0402 9.11536C59.0216 9.00943 59.009 8.93546 58.998 8.85356C58.9945 8.82859 58.9929 8.80526 58.9901 8.78076H57.1673H57.167Z" fill="white"/>
<path d="M75.9461 25.1244L75.9556 24.6824C74.6368 24.4927 72.8542 24.2925 68.3546 18.5728C63.855 12.8531 60.7402 8.78356 60.7402 8.78356L58.9139 8.78076L58.7681 10.1647L64.9876 18.1171C64.9876 18.1171 67.1951 20.8845 69.6507 22.8181C71.4054 24.1999 73.683 25.1234 75.9463 25.1244H75.9461Z" fill="white"/>
<path d="M42.1068 26.7173L41.9609 28.1005C41.9609 28.1005 44.686 31.5375 48.18 36.0534C49.8593 38.2241 51.862 39.9886 53.5949 40.9632C57.3161 43.056 60.0751 42.6376 62.1097 42.3642C63.5557 42.1698 65.834 41.5053 67.0172 41.4581L68.1918 35.7079L67.8273 35.6087C66.7678 39.0772 64.343 41.4994 61.6841 41.8807C59.9484 42.1297 58.1384 42.2403 55.6238 40.4492C54.4181 39.5903 52.9416 38.1791 51.5472 36.5094L43.9333 26.7203L42.1068 26.7175V26.7173ZM66.2145 25.9034C66.2145 25.9034 65.9716 26.9371 64.9625 27.0234C63.9533 27.1098 63.3137 26.6048 61.9037 26.6048C61.0105 26.6048 55.8858 26.7231 55.8858 34.0584C55.8858 37.1405 56.6873 39.0959 57.7095 40.3358C58.5754 41.1056 60.0121 40.9824 60.0436 40.9877C59.1275 39.9888 58.3358 37.9885 58.3358 34.0664C58.3358 33.8232 58.3405 33.5906 58.3475 33.3643H60.1544C61.6932 33.3643 62.7572 34.6509 63.5202 35.9622C63.6292 36.1496 63.7321 36.3376 63.8294 36.5222L64.2072 36.3815L62.7831 32.0291C62.7831 32.0291 62.1734 32.8962 60.8035 32.8962H58.368C58.3687 32.8827 58.3687 32.8682 58.3694 32.8547C58.6942 27.1772 61.2385 27.0738 62.1034 27.0738C63.65 27.0738 65.5306 28.6934 66.7598 31.5751C66.8417 31.7671 66.9213 31.9647 66.9983 32.168L67.4045 32.0681L66.2145 25.9037V25.9034Z" fill="white"/>
<path d="M13.8079 25.9034L12.6587 31.6201L13.0225 31.7279C14.4549 27.8224 16.0871 27.1758 17.4136 27.1758H24.0402L24.9087 26.7201C24.9087 26.7201 16.2285 26.7077 15.2223 26.7077C14.2162 26.7077 13.8079 25.9034 13.8079 25.9034Z" fill="white"/>
<path d="M24.5449 37.229C23.1125 41.1343 21.4803 41.7811 20.1538 41.7811H13.1186L12.6587 42.2368C12.6587 42.2368 21.3389 42.2492 22.3448 42.2492C23.351 42.2492 23.7595 43.0535 23.7595 43.0535L24.9087 37.3368L24.5449 37.229Z" fill="white"/>
<path d="M12.6587 42.2368L22.3035 26.7167L24.9087 26.7202L15.3717 42.2403L12.6587 42.2368Z" fill="white"/>
<path d="M32.7038 27.1758C35.722 27.1483 37.5063 30.7565 37.0518 34.6147C37.0518 34.6147 34.4891 34.0743 33.0508 34.0911C31.6125 34.1081 29.8595 34.1942 28.1405 35.534C28.1405 35.534 28.1629 32.8344 28.3855 31.3522C28.6121 29.844 29.6854 27.2031 32.7036 27.1756L32.7038 27.1758ZM32.9241 26.6916C32.7335 26.687 32.54 26.6884 32.3452 26.6961C29.2286 26.8186 26.1306 28.8157 25.7171 33.2695C25.2705 38.0781 27.6911 40.8473 29.3156 42.0583C30.9401 43.2693 34.0919 43.7674 36.8464 42.9858C39.6009 42.2041 42.6739 41.2061 45.9523 41.9495C49.2306 42.6929 51.3525 44.732 51.3525 44.732L51.7121 44.3916C51.7121 44.3916 47.3922 40.6377 43.4404 39.8372C39.4887 39.0366 35.7334 41.3041 32.8368 41.7906C29.9405 42.2771 28.1751 40.6891 27.7614 39.251C27.3477 37.813 27.8281 36.1367 29.4703 35.2601C31.389 34.2358 35.3816 34.4782 37.777 35.4643C39.8123 36.3022 41.9401 37.3055 43.5424 37.3295C43.5429 37.3302 43.5433 37.3309 43.5438 37.3316H44.0935V36.8636C44.0935 36.8636 44.1061 36.8636 43.6845 36.8636C43.1779 36.8636 42.4691 36.4261 42.4609 35.6962V26.718C42.4583 26.7159 42.3158 26.718 42.1823 26.7194C42.1823 26.7187 42.1823 26.718 42.1823 26.7173H40.3595V27.1854C40.3595 27.1854 40.3469 27.1854 40.7685 27.1854C41.2779 27.1854 41.9928 27.6278 41.9928 28.3651V33.833L41.9606 34.8889C41.9606 35.762 41.3505 36.0026 40.8334 35.9965C40.1549 35.9886 39.5888 35.6115 39.5888 35.6115C39.5888 35.6115 39.5638 32.4685 38.98 30.9222C37.9753 28.2608 35.7845 26.7619 32.9243 26.6916H32.9241Z" fill="white"/>
</g>
</g>
</svg>
