<svg width="37" height="36" viewBox="0 0 37 36" fill="none" xmlns="http://www.w3.org/2000/svg">
<path d="M9.82774 2.9804C11.6065 1.88718 13.4596 1.52133 15.4904 1.39478L15.8974 2.30371C16.3245 2.48498 17.0639 2.92583 17.5535 2.64171C17.9701 2.39987 18.1492 2.16339 18.683 2.13013C19.338 2.08931 20.0401 2.13958 20.701 2.13413C22.6643 2.11797 24.1584 3.50134 26.0399 3.89062C26.9551 4.07997 27.8622 4.52943 28.618 5.07301C30.6916 6.56434 32.1344 8.52693 33.707 10.5238C34.3733 11.3699 35.1711 12.4199 34.9865 13.5649C34.799 14.7279 34.7579 15.9568 34.6639 17.134C34.5667 18.3521 34.4497 19.6251 34.2714 20.8308C34.0107 22.5945 33.2735 24.3096 32.685 25.9839C32.5489 26.3712 32.3895 27.4857 32.0792 27.715C31.6178 28.0561 31.217 28.8269 30.8663 29.2829C29.1308 31.5395 26.9101 33.5091 24.0676 34.086C21.6242 34.582 18.9368 34.4642 16.4513 34.619C13.6698 34.7924 10.8759 34.5965 8.39385 33.2785C7.7353 32.9288 7.24689 32.307 6.7489 31.7655C5.73958 30.6679 4.70502 29.3804 4.00727 28.0629C3.02927 26.2163 2.69441 23.9516 2.11555 21.9652C1.84758 21.0456 1.82462 20.1077 1.76545 19.1581C1.69037 17.9534 1.47154 16.6626 1.6716 15.4658C2.0107 13.4371 2.36133 10.975 3.48077 9.20226C3.99528 8.3875 4.63789 7.68959 5.23426 6.93893C6.52471 5.31464 8.05973 4.06702 9.82774 2.9804Z" fill="white"/>
<path fill-rule="evenodd" clip-rule="evenodd" d="M14.998 13.0147L15.6644 23.7091C15.9171 23.5925 16.1785 23.4807 16.431 23.392C17.0827 23.1632 17.6968 22.8964 18.2498 22.5755C18.7046 22.3115 19.1478 21.9352 19.7034 21.4431L19.8255 21.3348L19.8255 21.3348C20.3188 20.8968 20.9108 20.3711 21.5653 19.9462C21.9023 19.7274 22.343 19.491 22.7504 19.2725L22.7693 19.2624L22.7881 19.2523L22.7882 19.2522C23.2206 19.0203 23.6613 18.784 24.0839 18.5314C24.515 18.2736 24.8849 18.0236 25.1675 17.7833C25.1871 17.7667 25.2058 17.7504 25.2237 17.7346C25.1118 17.6687 24.9881 17.6017 24.8552 17.5329C24.772 17.4898 24.6959 17.4514 24.6174 17.4118L24.6173 17.4118L24.5123 17.3587C24.4075 17.3057 24.2788 17.2398 24.1648 17.1736C23.6285 16.8624 23.0454 16.6095 22.3847 16.3408C22.2702 16.2943 22.1522 16.2468 22.0314 16.1982L22.0314 16.1982C21.4835 15.9779 20.8795 15.7349 20.2981 15.454C19.919 15.2708 19.5151 15.1046 19.0594 14.9172C18.8539 14.8327 18.6379 14.7438 18.4089 14.6471C17.7282 14.3597 16.9519 14.0095 16.2932 13.5599C16.1358 13.4526 15.9681 13.3905 15.572 13.2438L15.508 13.2201C15.3636 13.1665 15.1889 13.1011 14.998 13.0147ZM12.7426 25.0569L11.8339 10.4761C11.7824 9.64928 12.4109 8.93724 13.2378 8.88571C13.3242 8.88032 13.4094 8.88237 13.4928 8.89131C13.793 8.82014 14.1178 8.84067 14.4237 8.97048C14.6575 9.06973 14.867 9.22176 14.9598 9.2896C15.0895 9.38443 15.2253 9.49256 15.3475 9.59295C15.5938 9.79521 15.8372 10.0091 15.9593 10.1169C16.0542 10.2006 16.1868 10.2722 16.5507 10.4071C16.5827 10.4189 16.6178 10.4317 16.6555 10.4454L16.6556 10.4454C16.9796 10.563 17.5013 10.7524 17.9842 11.0819C18.3756 11.349 18.9104 11.6025 19.5758 11.8834C19.7428 11.9539 19.9226 12.0279 20.1088 12.1045L20.1088 12.1045C20.6016 12.3073 21.139 12.5284 21.6034 12.7528C22.0845 12.9853 22.5728 13.182 23.1145 13.4001L23.1145 13.4001C23.2446 13.4525 23.3778 13.5061 23.5147 13.5618C24.1947 13.8382 24.9419 14.1561 25.6704 14.5788C25.7296 14.6131 25.7955 14.6462 25.8994 14.6983L25.8994 14.6983C25.9819 14.7397 26.0884 14.7931 26.2343 14.8687C26.5051 15.0088 26.8561 15.1995 27.1876 15.4324C27.499 15.6511 27.9168 15.9908 28.203 16.4712C28.5318 17.0231 28.6816 17.7712 28.3331 18.542C28.0437 19.1819 27.5591 19.6876 27.1108 20.0688C26.6482 20.4621 26.12 20.8093 25.6233 21.1063C25.1398 21.3953 24.6458 21.6603 24.2278 21.8844L24.1873 21.9061C23.7352 22.1486 23.4125 22.3237 23.1989 22.4624C22.7415 22.7594 22.3104 23.1414 21.774 23.6168L21.6925 23.6889C21.157 24.1632 20.5053 24.7351 19.7557 25.1701C18.9982 25.6098 18.2022 25.9497 17.4249 26.2226C17.1181 26.3303 16.7959 26.4899 16.3739 26.6989C16.2655 26.7526 16.1505 26.8095 16.0275 26.8697C15.5025 27.1265 14.8024 27.4558 14.0813 27.5919C13.2672 27.7456 12.4827 27.2103 12.3291 26.3962C12.2335 25.8903 12.4042 25.3957 12.7426 25.0569Z" fill="#E24146"/>
</svg>
